<svg viewBox="0 0 38 38" xmlns="http://www.w3.org/2000/svg">
<path d="M28.5 25.46C27.2967 25.46 26.22 25.935 25.3967 26.6792L14.1075 20.1083C14.1867 19.7442 14.25 19.38 14.25 19C14.25 18.62 14.1867 18.2558 14.1075 17.8917L25.27 11.3842C26.125 12.1758 27.2492 12.6667 28.5 12.6667C31.1283 12.6667 33.25 10.545 33.25 7.91666C33.25 5.28832 31.1283 3.16666 28.5 3.16666C25.8717 3.16666 23.75 5.28832 23.75 7.91666C23.75 8.29666 23.8133 8.66082 23.8925 9.02499L12.73 15.5325C11.875 14.7408 10.7508 14.25 9.5 14.25C6.87167 14.25 4.75 16.3717 4.75 19C4.75 21.6283 6.87167 23.75 9.5 23.75C10.7508 23.75 11.875 23.2592 12.73 22.4675L24.0033 29.0542C23.9242 29.3867 23.8767 29.735 23.8767 30.0833C23.8767 32.6325 25.9508 34.7067 28.5 34.7067C31.0492 34.7067 33.1233 32.6325 33.1233 30.0833C33.1233 27.5342 31.0492 25.46 28.5 25.46Z" fill="#1565C0"/>
</svg>
